<svg width="46" height="46" viewBox="0 0 46 46" fill="none" xmlns="http://www.w3.org/2000/svg">
<path fill-rule="evenodd" clip-rule="evenodd" d="M42.5451 18.4108C40.4716 20.629 37.0734 22.3169 33.6197 23C37.0734 23.6831 40.4716 25.3711 42.5449 27.5892L44.8987 30.1075L41.5142 30.7611C38.533 31.3368 34.7916 30.705 31.5959 29.2275C33.9884 31.8104 35.7456 35.1732 36.1194 38.1864L36.5435 41.6072L33.4212 40.147C30.6709 38.8606 28.0155 36.15 26.2986 33.0763C26.716 36.5721 26.1611 40.3257 24.692 42.9831L23.0245 46L21.357 42.9831C19.8881 40.3257 19.333 36.5721 19.7507 33.0763C18.0337 36.15 15.3783 38.8603 12.6279 40.147L9.5056 41.6072L9.92977 38.1864C10.3034 35.1732 12.0606 31.8104 14.4533 29.2275C11.2576 30.705 7.51615 31.337 4.53491 30.7611L1.15039 30.1075L3.5043 27.5892C5.57773 25.3708 8.97607 23.6831 12.4298 23C8.97596 22.3169 5.57773 20.629 3.5043 18.4108L1.15039 15.8926L4.53491 15.2388C7.51615 14.6631 11.2577 15.295 14.4533 16.7725C12.0606 14.1897 10.3034 10.8267 9.92977 7.81347L9.5056 4.39256L12.628 5.85313C15.3784 7.13952 18.0338 9.84998 19.7508 12.9237C19.3331 9.42786 19.8882 5.67426 21.3571 3.01684L23.0248 0L24.6923 3.01684C26.1613 5.67426 26.7163 9.42786 26.2986 12.9237C28.0158 9.84998 30.6711 7.13964 33.4215 5.85313L36.5439 4.39256L36.1196 7.81347C35.7461 10.8267 33.9889 14.1897 31.5962 16.7725C34.7918 15.295 38.5332 14.663 41.5145 15.2388L44.8992 15.8926L42.5451 18.4108ZM18.6889 27.3001C21.0529 29.664 24.8857 29.664 27.2496 27.3001C29.6136 24.9361 29.6136 21.1033 27.2496 18.7393C24.8857 16.3753 21.0529 16.3753 18.6889 18.7393C16.3249 21.1033 16.3249 24.9361 18.6889 27.3001Z" fill="url(#paint0_linear_255_406)"/>
<defs>
<linearGradient id="paint0_linear_255_406" x1="23.0248" y1="0" x2="23.0248" y2="46" gradientUnits="userSpaceOnUse">
<stop offset="0.0240385" stop-color="#A92CEC"/>
<stop offset="0.548077" stop-color="#5588C9"/>
<stop offset="0.975962" stop-color="#10D3AD"/>
</linearGradient>
</defs>
</svg>
