<svg width="46" height="46" viewBox="0 0 46 46" fill="none" xmlns="http://www.w3.org/2000/svg">
<g clip-path="url(#clip0_255_414)">
<mask id="mask0_255_414" style="mask-type:luminance" maskUnits="userSpaceOnUse" x="0" y="0" width="46" height="46">
<path d="M46 0H0V46H46V0Z" fill="white"/>
</mask>
<g mask="url(#mask0_255_414)">
<path fill-rule="evenodd" clip-rule="evenodd" d="M23.7229 0C24.231 0 24.6429 0.411898 24.6429 0.92V9.81523C24.6429 10.8264 26.0371 11.0974 26.416 10.1599L29.748 1.91235C29.9384 1.44124 30.4745 1.21364 30.9458 1.40398L32.2863 1.94555C32.7573 2.13589 32.985 2.67209 32.7946 3.1432L29.2422 11.9358C28.8666 12.8651 30.0369 13.6397 30.7457 12.931L37.4511 6.22539C37.8106 5.8661 38.393 5.8661 38.7522 6.22539L39.7746 7.24767C40.1339 7.60695 40.1339 8.18945 39.7746 8.54873L33.753 14.5704C33.0342 15.2892 33.8404 16.4709 34.7719 16.0639L42.5753 12.6545C43.041 12.4511 43.5834 12.6636 43.7867 13.1292L44.3656 14.454C44.5689 14.9196 44.3564 15.462 43.8909 15.6654L34.8988 19.5941C33.9853 19.9932 34.2702 21.3571 35.2671 21.3571H45.08C45.5881 21.3571 46 21.769 46 22.2771V23.7229C46 24.231 45.5881 24.6429 45.08 24.6429H35.2673C34.2702 24.6429 33.9855 26.0068 34.8988 26.4058L43.8909 30.3347C44.3564 30.538 44.5689 31.0804 44.3656 31.5459L43.7867 32.8707C43.5834 33.3364 43.041 33.549 42.5753 33.3454L34.7719 29.9361C33.8404 29.529 33.0342 30.7108 33.753 31.4297L39.7746 37.4511C40.1339 37.8106 40.1339 38.393 39.7746 38.7522L38.7522 39.7746C38.393 40.1339 37.8106 40.1339 37.4511 39.7746L30.7457 33.0689C30.0369 32.3603 28.8666 33.1349 29.2422 34.0641L32.7946 42.8568C32.985 43.3279 32.7573 43.864 32.2863 44.0544L30.9458 44.5961C30.4745 44.7863 29.9384 44.5588 29.748 44.0876L26.416 35.8402C26.0371 34.9025 24.6429 35.1737 24.6429 36.1847V45.08C24.6429 45.5881 24.231 46 23.7229 46H22.2771C21.769 46 21.3571 45.5881 21.3571 45.08V36.1847C21.3571 35.1737 19.9629 34.9025 19.5841 35.8402L16.2519 44.0876C16.0616 44.5588 15.5254 44.7863 15.0543 44.5961L13.7138 44.0544C13.2427 43.864 13.0151 43.3279 13.2055 42.8568L16.7579 34.0641C17.1334 33.1349 15.9631 32.3603 15.2544 33.0689L8.54875 39.7746C8.18947 40.1339 7.60695 40.1339 7.24769 39.7746L6.22541 38.7522C5.86613 38.393 5.86613 37.8106 6.22541 37.4511L12.247 31.4295C12.9659 30.7107 12.1597 29.529 11.2281 29.9361L3.42459 33.3454C2.959 33.549 2.41663 33.3364 2.21321 32.8707L1.6344 31.5459C1.43097 31.0804 1.64351 30.538 2.10911 30.3347L11.1011 26.4058C12.0146 26.0068 11.7297 24.6429 10.7328 24.6429H0.92C0.411898 24.6429 0 24.231 0 23.7229V22.2771C0 21.769 0.411898 21.3571 0.92 21.3571H10.7328C11.7297 21.3571 12.0146 19.9932 11.1012 19.5941L2.1091 15.6654C1.6435 15.462 1.43096 14.9196 1.63439 14.454L2.2132 13.1292C2.41663 12.6636 2.95897 12.4511 3.42459 12.6545L11.2281 16.0639C12.1597 16.471 12.9659 15.2892 12.247 14.5704L6.22541 8.54875C5.86613 8.18947 5.86613 7.60695 6.22541 7.24767L7.24767 6.22541C7.60695 5.86613 8.18947 5.86613 8.54875 6.22541L15.2544 12.931C15.963 13.6397 17.1333 12.8651 16.7579 11.9358L13.2055 3.1432C13.0151 2.67209 13.2427 2.13589 13.7138 1.94555L15.0543 1.40398C15.5254 1.21364 16.0616 1.44124 16.2519 1.91235L19.5841 10.1599C19.9629 11.0974 21.3571 10.8264 21.3571 9.81523V0.92C21.3571 0.411898 21.769 0 22.2771 0H23.7229ZM23 32.8571C28.4439 32.8571 32.8571 28.4439 32.8571 23C32.8571 17.5561 28.4439 13.1429 23 13.1429C17.5561 13.1429 13.1429 17.5561 13.1429 23C13.1429 28.4439 17.5561 32.8571 23 32.8571Z" fill="url(#paint0_linear_255_414)"/>
</g>
</g>
<defs>
<linearGradient id="paint0_linear_255_414" x1="23" y1="0" x2="23" y2="46" gradientUnits="userSpaceOnUse">
<stop offset="0.0240385" stop-color="#A92CEC"/>
<stop offset="0.548077" stop-color="#5588C9"/>
<stop offset="0.975962" stop-color="#10D3AD"/>
</linearGradient>
<clipPath id="clip0_255_414">
<rect width="46" height="46" fill="white"/>
</clipPath>
</defs>
</svg>
